<svg xmlns="http://www.w3.org/2000/svg" viewBox="0 0 24 24" fill="none" stroke="currentColor" stroke-width="2" stroke-linecap="round" stroke-linejoin="round">
  <path d="M9 19c-5 1.5-5-2.5-7-3m14 6v-3.87a3.375 3.375 0 0 0-1.025-2.44c3.025-.35 6.025-1.495 6.025-6.12 0-1.395-.505-2.64-1.34-3.66.135-.375.615-1.8.12-3.75 0 0-1.08-.35-3.54 1.33a9.73 9.73 0 0 0-3.24-.46 9.73 9.73 0 0 0-3.24.46c-2.46-1.68-3.54-1.33-3.54-1.33-.495 1.95.015 3.375.135 3.75-.895 1.02-1.42 2.265-1.42 3.66 0 4.625 3 5.77 6.025 6.12-.375.375-.72.963-.84 1.875 0 0-.76.255-2.430-.26-1.62-.52-2.09-2.03-2.09-2.03-.145-.375-.6-.46-1.005-.3-.405.165-.645.585-.495.96 0 0 1.2 1.86 3.75 2.48.405.105.78.015.975-.15.21-.165.315-.495.315-.825V21"/>
</svg>
